<svg width="90" height="42" viewBox="0 0 90 42" fill="none" xmlns="http://www.w3.org/2000/svg">
<path fill-rule="evenodd" clip-rule="evenodd" d="M5.12123 41.0725H0V13.0171H5.12123V29.2536L11.1776 22.3689H17.3498L9.93963 30.7855L19.0688 41.0725H12.7452L5.11232 32.4688V41.0725H5.12123ZM27.4765 21.9592C32.9005 21.9592 37.3182 26.261 37.3182 31.7207C37.3182 37.1804 32.9005 41.4822 27.4765 41.4822C22.0525 41.4822 17.6348 37.1804 17.6348 31.7207C17.6348 26.261 22.0525 21.9592 27.4765 21.9592ZM27.4765 26.742C24.7867 26.742 22.8006 28.835 22.8006 31.7207C22.8006 34.5975 24.7867 36.6994 27.4765 36.6994C30.1663 36.6994 32.1168 34.6064 32.1168 31.7207C32.1079 28.8439 30.1663 26.742 27.4765 26.742ZM39.0638 31.7207C39.0638 37.029 42.8758 41.4822 47.8545 41.4822C50.4374 41.4822 52.4146 40.173 53.2429 38.9795V41.0725H58.3642V22.3689H53.2429V24.4619C52.4235 23.2685 50.4374 21.9592 47.8545 21.9592C42.8758 21.9592 39.0638 26.4124 39.0638 31.7207ZM53.6526 31.7207C53.6526 34.642 51.7467 36.8063 48.9411 36.8063C46.1356 36.8063 44.2296 34.6331 44.2296 31.7207C44.2296 28.8083 46.1356 26.6351 48.9411 26.6351C51.7378 26.6351 53.6526 28.7994 53.6526 31.7207ZM79.4903 41.4822C74.5116 41.4822 70.6996 37.029 70.6996 31.7207C70.6996 26.4124 74.5116 21.9592 79.4903 21.9592C82.0732 21.9592 84.0505 23.2685 84.8788 24.4619V22.3689H90V41.0725H84.8788V38.9795C84.0505 40.173 82.0732 41.4822 79.4903 41.4822ZM80.5769 36.8063C83.3825 36.8063 85.2885 34.6331 85.2885 31.7207C85.2885 28.8083 83.3825 26.6351 80.5769 26.6351C77.7714 26.6351 75.8654 28.8083 75.8654 31.7207C75.8654 34.6331 77.7714 36.8063 80.5769 36.8063Z" fill="#2B3747"/>
<path fill-rule="evenodd" clip-rule="evenodd" d="M51.7234 1.73236L51.7379 1.7416C52.6286 2.31162 54.4811 3.5229 56.1377 5.88312C57.9368 8.44818 58.5603 11.0132 58.7919 12.5808C57.3579 10.7282 55.5232 8.72428 53.1897 6.8183C52.5395 6.28391 49.066 3.46946 48.3624 2.93507C48.2721 2.86615 48.1831 2.79858 48.0957 2.73226C47.0874 1.96729 46.2971 1.36768 46.4118 0.752986C46.4653 0.467978 46.6968 0.289849 46.7592 0.245317C47.9543 -0.666477 50.9179 1.21968 51.7234 1.73236ZM53.7819 11.6547C53.8843 11.7238 53.9868 11.7928 54.0892 11.8596C55.0155 12.5365 56.396 13.7389 57.447 15.6181C57.9724 16.5444 58.2931 17.4261 58.5068 18.1654C55.7547 16.2149 53.439 14.9056 52.0674 14.2643C50.58 13.5785 49.2797 13.1599 49.2797 13.1599L49.1669 13.1245L49.1669 13.1245L49.1668 13.1245C48.7686 12.9993 48.4552 12.9008 48.0149 12.7948C47.8396 12.7522 47.6417 12.7075 47.4231 12.6581C46.8643 12.5319 46.1699 12.3751 45.3697 12.1446C45.0936 12.0644 44.7373 11.9576 44.4791 11.6369L44.4761 11.6331C44.4085 11.5463 44.1418 11.2039 44.2208 10.8443C44.3009 10.4613 44.7106 10.2475 45.2539 10.0516C45.7396 9.87352 46.2546 9.76166 46.4649 9.71599L46.5187 9.70423L46.5454 9.69532C47.3826 9.57954 48.8076 9.49938 50.4731 9.98033C51.8358 10.3722 52.8423 10.9957 53.4746 11.4499C53.5771 11.5167 53.6795 11.5857 53.7819 11.6547ZM78.7601 2.38287C78.7779 2.27599 78.8225 1.97317 78.6532 1.75941C78.4662 1.52784 78.1188 1.52784 78.0031 1.52784C77.4598 1.52784 73.6656 2.32943 71.1896 5.98108C68.669 9.69508 69.1856 13.9168 69.435 15.3596C69.6933 14.7183 70.0496 13.8811 70.5216 12.9281L70.5231 12.925C71.3331 11.2784 72.1255 9.66745 73.3093 8.2077C74.1693 7.14283 75.3283 6.05983 76.3571 5.09857L76.3572 5.09855C77.6086 3.92926 78.6672 2.94011 78.7601 2.38287ZM75.8477 10.7729C78.6621 8.31474 81.1025 7.77145 82.0733 7.61113C82.7057 7.50425 84.8788 7.1569 85.3242 8.01192C85.3598 8.08317 85.4577 8.29693 85.3598 8.68881C85.0724 9.84523 83.6179 10.4759 81.3639 11.4533C80.6841 11.7481 79.9316 12.0745 79.1164 12.4563C77.914 13.0174 76.5068 13.6853 74.9927 14.6562C73.0867 15.8763 71.6973 17.1589 70.7978 18.0673C71.5815 16.0812 73.0511 13.2222 75.8477 10.7729Z" fill="#34D098"/>
<path d="M66.8957 28.035C67.0016 27.9285 67.0737 27.793 67.1028 27.6456C67.132 27.4982 67.1169 27.3455 67.0595 27.2066C67.0021 27.0678 66.9049 26.949 66.7802 26.8653C66.6555 26.7815 66.5088 26.7365 66.3585 26.7358H61.7867C61.6354 26.7273 61.485 26.764 61.3547 26.8414C61.2244 26.9188 61.1201 27.0332 61.0552 27.1702C60.9931 27.3008 60.9729 27.4475 60.9975 27.59C61.022 27.7326 61.0901 27.8641 61.1923 27.9664C61.7333 28.9684 62.2705 33.4376 61.7867 34.371C61.6807 34.4776 62.2531 34.8099 61.7867 34.8099C61.7575 34.9573 61.7293 35.1099 61.7867 35.2488C61.8441 35.3876 62.0915 35.6039 62.2162 35.6877C62.3409 35.7714 61.6364 35.8789 61.7867 35.8795H66.3585C66.5098 35.8881 66.2282 35.8095 66.3585 35.7322C66.4888 35.6548 66.1011 35.3857 66.1661 35.2488C65.4346 35.2123 66.1906 35.1123 66.1661 34.9698C66.1661 34.9698 66.4608 33.8913 66.3585 33.7889C65.8175 32.7869 66.4119 28.9684 66.8957 28.035Z" fill="#2B3747"/>
<path d="M66.6102 35.7006C66.6347 36.1184 66.7453 36.4502 66.9419 36.696C67.1386 36.9417 67.3721 37.1261 67.6424 37.2489C67.9373 37.3472 68.2568 37.4087 68.6009 37.4333C68.9696 37.4333 69.3505 37.4087 69.7437 37.3595V41.1567C69.3997 41.2304 69.0924 41.2796 68.8221 41.3041C68.5763 41.3533 68.3551 41.3902 68.1585 41.4147C67.9373 41.4393 67.753 41.4393 67.6055 41.4147C66.6716 41.4147 65.836 41.3779 65.0987 41.3041C64.3614 41.2304 63.7346 40.9969 63.2185 40.6037C62.7024 40.1859 62.3092 39.5715 62.0388 38.7604C61.7685 37.9248 61.6333 36.7451 61.6333 35.2213V27.5906H66.6102V35.7006Z" fill="#2B3747"/>
<path d="M66.8564 16.8673C66.9616 16.7443 67.0331 16.588 67.0621 16.4179C67.091 16.2478 67.0761 16.0716 67.019 15.9114C66.962 15.7512 66.8655 15.6141 66.7416 15.5175C66.6177 15.4208 66.472 15.3688 66.3227 15.3681H61.7813C61.631 15.3582 61.4816 15.4007 61.3522 15.4899C61.2228 15.5792 61.1192 15.7113 61.0547 15.8693C60.993 16.0201 60.973 16.1893 60.9974 16.3538C61.0218 16.5183 61.0894 16.67 61.191 16.7881C61.7284 17.9444 61.7283 23.2352 61.2477 24.3123C61.1425 24.4353 61.0709 24.5916 61.042 24.7617C61.013 24.9318 61.028 25.108 61.085 25.2682C61.1421 25.4284 61.2386 25.5655 61.3625 25.6621C61.4864 25.7588 61.6321 25.8108 61.7813 25.8115H66.3227C66.473 25.8213 66.6224 25.7789 66.7519 25.6897C66.8813 25.6004 66.9849 25.4683 67.0494 25.3103C67.111 25.1595 67.1311 24.9903 67.1067 24.8258C67.0823 24.6613 67.0147 24.5096 66.9131 24.3915C66.3757 23.2352 66.3757 17.9444 66.8564 16.8673Z" fill="#2B3747"/>
<path d="M66.8564 5.49934C66.9616 5.37639 67.0331 5.22005 67.0621 5.04997C67.091 4.8799 67.0761 4.70367 67.019 4.54346C66.962 4.38325 66.8655 4.2462 66.7416 4.14953C66.6177 4.05287 66.472 4.00091 66.3227 4.00018H61.7813C61.631 3.99032 61.4816 4.03273 61.3522 4.12201C61.2228 4.21128 61.1192 4.34336 61.0547 4.50137C60.993 4.65213 60.973 4.82138 60.9974 4.98588C61.0218 5.15038 61.0894 5.3021 61.191 5.42021C61.7284 6.57645 61.7283 11.8673 61.2477 12.9444C61.1425 13.0673 61.0709 13.2237 61.042 13.3938C61.013 13.5638 61.028 13.7401 61.085 13.9003C61.1421 14.0605 61.2386 14.1975 61.3625 14.2942C61.4864 14.3909 61.6321 14.4428 61.7813 14.4436H66.3227C66.473 14.4534 66.6224 14.411 66.7519 14.3217C66.8813 14.2325 66.9849 14.1004 67.0494 13.9424C67.111 13.7916 67.1311 13.6224 67.1067 13.4579C67.0823 13.2934 67.0147 13.1416 66.9131 13.0235C66.3757 11.8673 66.3757 6.57645 66.8564 5.49934Z" fill="#2B3747"/>
</svg>
